<!--?xml version="1.0" standalone="no"?-->
              <svg id="sw-js-blob-svg" viewBox="0 0 100 100" xmlns="http://www.w3.org/2000/svg" version="1.1">
                    <defs> 
                        <linearGradient id="sw-gradient" x1="0" x2="1" y1="1" y2="0">
                            <stop id="stop1" stop-color="rgba(248, 117, 55, 1)" offset="0%"></stop>
                            <stop id="stop2" stop-color="rgba(251, 168, 31, 1)" offset="100%"></stop>
                        </linearGradient>
                    </defs>
                <path fill="url(#sw-gradient)" d="M22.5,-24.6C29.9,-20.6,37.2,-14.2,39.5,-6.3C41.7,1.7,38.8,11.2,33.2,17.6C27.6,24.1,19.4,27.5,10.7,31.5C2,35.6,-7.2,40.3,-15.5,38.9C-23.7,37.4,-31,29.8,-33.4,21.4C-35.7,13,-33.1,3.8,-30.1,-4C-27.2,-11.7,-23.8,-18,-18.7,-22.5C-13.6,-26.9,-6.8,-29.5,0.4,-30C7.5,-30.4,15.1,-28.7,22.5,-24.6Z" width="100%" height="100%" transform="translate(50 50)" style="transition: 0.3s;" stroke-width="0" stroke="url(#sw-gradient)"></path>
              </svg>